<svg width="28" height="28" viewBox="0 0 28 28" fill="none" xmlns="http://www.w3.org/2000/svg">
<path d="M25.3333 16C25.3333 10.5003 25.3333 5.41833 23.6242 3.708C21.9162 2 19.1663 2 13.6667 2C8.167 2 5.41833 2 3.708 3.708C2 5.41717 2 8.167 2 13.6667C2 19.1663 2 21.9173 3.708 23.6242C5.41717 25.3333 10.0003 25 15.5 25" stroke="#B486FF" stroke-width="2" stroke-linecap="round"/>
<path d="M18.1 13.4804C18.5 13.7113 18.5 14.2887 18.1 14.5196L12.4 17.8105C12 18.0415 11.5 17.7528 11.5 17.2909L11.5 10.7091C11.5 10.2472 12 9.95855 12.4 10.1895L18.1 13.4804Z" stroke="#B486FF" stroke-width="2"/>
<path fill-rule="evenodd" clip-rule="evenodd" d="M22 18C20.114 18 19.172 18 18.586 18.586C18 19.172 18 20.114 18 22C18 23.886 18 24.828 18.586 25.414C19.172 26 20.114 26 22 26C23.886 26 24.828 26 25.414 25.414C26 24.828 26 23.886 26 22C26 20.114 26 19.172 25.414 18.586C24.828 18 23.886 18 22 18ZM23.805 21.084L22.471 19.751C22.346 19.6263 22.1766 19.5563 22 19.5563C21.8234 19.5563 21.654 19.6263 21.529 19.751L20.195 21.084C20.1306 21.1454 20.0791 21.219 20.0435 21.3005C20.008 21.3821 19.9891 21.4699 19.988 21.5589C19.987 21.6478 20.0037 21.7361 20.0372 21.8185C20.0708 21.9009 20.1205 21.9757 20.1834 22.0386C20.2463 22.1015 20.3211 22.1512 20.4035 22.1848C20.4859 22.2183 20.5742 22.235 20.6631 22.2339C20.7521 22.2329 20.8399 22.214 20.9215 22.1785C21.003 22.1429 21.0766 22.0914 21.138 22.027L21.333 21.832V23.778C21.333 23.9549 21.4033 24.1246 21.5284 24.2496C21.6534 24.3747 21.8231 24.445 22 24.445C22.1769 24.445 22.3466 24.3747 22.4716 24.2496C22.5967 24.1246 22.667 23.9549 22.667 23.778V21.832L22.862 22.027C22.9881 22.1471 23.1561 22.2131 23.3301 22.211C23.5042 22.2088 23.6705 22.1387 23.7936 22.0156C23.9167 21.8925 23.9868 21.7262 23.989 21.5521C23.9911 21.3781 23.9251 21.2101 23.805 21.084Z" fill="#B486FF"/>
</svg>
