<svg width="40" height="40" viewBox="0 0 40 40" fill="none" xmlns="http://www.w3.org/2000/svg">
<rect width="40" height="40" rx="20" fill="#F4F6F5"/>
<path d="M13 15.5C12.7188 15.5 12.5 15.75 12.5 16V24C12.5 24.2812 12.7188 24.5 13 24.5H21C21.25 24.5 21.5 24.2812 21.5 24V16C21.5 15.75 21.25 15.5 21 15.5H13ZM11 16C11 14.9062 11.875 14 13 14H21C22.0938 14 23 14.9062 23 16V17.0312V22.9688V24C23 25.125 22.0938 26 21 26H13C11.875 26 11 25.125 11 24V16ZM27.5 23.375V16.6562L24 18.2188V16.5938L27.25 15.125C27.4062 15.0625 27.5625 15 27.75 15C28.4375 15 29 15.5625 29 16.25V23.7812C29 24.4688 28.4375 25 27.75 25C27.5625 25 27.4062 24.9688 27.25 24.9062L24 23.4375V21.7812L27.5 23.375Z" fill="#14191F"/>
</svg>
