<svg width="40" height="40" viewBox="0 0 40 40" fill="none" xmlns="http://www.w3.org/2000/svg">
<rect width="40" height="40" rx="20" fill="#F4F6F5"/>
<path d="M26 14.5H14C13.7188 14.5 13.5 14.75 13.5 15V25V25.0312L13.625 24.8438L16.125 21.3438C16.2812 21.125 16.5 21 16.75 21C16.9688 21 17.2188 21.125 17.3438 21.3125L18.3125 22.6562L20.9062 19.3125C21.0312 19.125 21.25 19 21.5 19C21.7188 19 21.9375 19.125 22.0938 19.3125L26.3438 24.8125L26.5 25V15C26.5 14.75 26.25 14.5 26 14.5ZM14 13H26C27.0938 13 28 13.9062 28 15V25C28 26.125 27.0938 27 26 27H14C12.875 27 12 26.125 12 25V15C12 13.9062 12.875 13 14 13ZM16.5 19C15.9375 19 15.4688 18.7188 15.1875 18.25C14.9062 17.8125 14.9062 17.2188 15.1875 16.75C15.4688 16.3125 15.9375 16 16.5 16C17.0312 16 17.5 16.3125 17.7812 16.75C18.0625 17.2188 18.0625 17.8125 17.7812 18.25C17.5 18.7188 17.0312 19 16.5 19Z" fill="#14191F"/>
</svg>
