<svg width="40" height="40" viewBox="0 0 40 40" fill="none" xmlns="http://www.w3.org/2000/svg">
<rect width="40" height="40" rx="20" fill="#F4F6F5"/>
<path d="M15 14.5C14.7188 14.5 14.5 14.75 14.5 15V25C14.5 25.2812 14.7188 25.5 15 25.5H25C25.25 25.5 25.5 25.2812 25.5 25V15C25.5 14.75 25.25 14.5 25 14.5H15ZM13 15C13 13.9062 13.875 13 15 13H25C26.0938 13 27 13.9062 27 15V25C27 26.125 26.0938 27 25 27H15C13.875 27 13 26.125 13 25V15ZM17 19C17.4062 19 17.75 19.3438 17.75 19.75V23.25C17.75 23.6875 17.4062 24 17 24C16.5625 24 16.25 23.6875 16.25 23.25V19.75C16.25 19.3438 16.5625 19 17 19ZM19.25 16.75C19.25 16.3438 19.5625 16 20 16C20.4062 16 20.75 16.3438 20.75 16.75V23.25C20.75 23.6875 20.4062 24 20 24C19.5625 24 19.25 23.6875 19.25 23.25V16.75ZM23 21C23.4062 21 23.75 21.3438 23.75 21.75V23.25C23.75 23.6875 23.4062 24 23 24C22.5625 24 22.25 23.6875 22.25 23.25V21.75C22.25 21.3438 22.5625 21 23 21Z" fill="#14191F"/>
</svg>
