<svg width="30" height="30" viewBox="0 0 30 30" fill="none" xmlns="http://www.w3.org/2000/svg">
<rect width="30" height="30" rx="15" fill="#F4F6F5"/>
<path d="M14.4141 10.5547L15 11.5156L15.5625 10.5547C15.9375 9.89844 16.6172 9.5 17.3672 9.5H17.4375C18.5625 9.5 19.5 10.4375 19.5 11.5625C19.5 11.9141 19.4062 12.2188 19.2656 12.5H19.875C20.4844 12.5 21 13.0156 21 13.625V15.125C21 15.6172 20.6719 16.0391 20.25 16.2031V16.25V20C20.25 20.8438 19.5703 21.5 18.75 21.5H11.25C10.4062 21.5 9.75 20.8438 9.75 20V16.25V16.2031C9.30469 16.0391 9 15.6172 9 15.125V13.625C9 13.0156 9.49219 12.5 10.125 12.5H10.7109C10.5703 12.2188 10.5 11.9141 10.5 11.5625C10.5 10.4375 11.4141 9.5 12.5625 9.5H12.6094C13.3594 9.5 14.0391 9.89844 14.4141 10.5547ZM19.875 13.625H17.4375H15.75V15.125H19.125H19.875V13.625ZM14.25 13.625H12.5625H10.125V15.125H10.875H14.25V13.625ZM14.25 16.25H10.875V20C10.875 20.2109 11.0391 20.375 11.25 20.375H14.25V16.25ZM15.75 20.375H18.75C18.9375 20.375 19.125 20.2109 19.125 20V16.25H15.75V20.375ZM17.4375 12.5C17.9531 12.5 18.375 12.1016 18.375 11.5625C18.375 11.0469 17.9531 10.625 17.4375 10.625H17.3672C17.0156 10.625 16.7109 10.8125 16.5234 11.1172L15.7031 12.5H15.75H17.4375ZM14.25 12.5H14.2734L13.4531 11.1172C13.2891 10.8125 12.9609 10.625 12.6094 10.625H12.5625C12.0234 10.625 11.625 11.0469 11.625 11.5625C11.625 12.1016 12.0234 12.5 12.5625 12.5H14.25Z" fill="#14191F"/>
</svg>
