<svg width="14" height="13" viewBox="0 0 14 13" fill="none" xmlns="http://www.w3.org/2000/svg">
<path d="M8.55859 0.652344C9.26953 0.816406 9.73438 1.5 9.59766 2.21094L9.51562 2.51172C9.37891 3.25 9.10547 3.93359 8.75 4.5625H12.6875C13.3984 4.5625 14 5.16406 14 5.875C14 6.39453 13.6992 6.83203 13.2891 7.05078C13.5898 7.29688 13.7812 7.65234 13.7812 8.0625C13.7812 8.71875 13.3164 9.23828 12.7148 9.375C12.8242 9.56641 12.9062 9.78516 12.9062 10.0312C12.9062 10.6328 12.5234 11.125 11.9766 11.2891C12.0039 11.3711 12.0312 11.4805 12.0312 11.5625C12.0312 12.3008 11.4297 12.875 10.7188 12.875H8.03906C7.51953 12.875 7.02734 12.7383 6.58984 12.4375L5.52344 11.7539C4.8125 11.2617 4.375 10.4414 4.375 9.56641V8.5V7.1875V6.53125C4.375 5.71094 4.73047 4.97266 5.35938 4.48047L5.55078 4.31641C6.26172 3.71484 6.78125 2.92188 6.94531 1.99219L7 1.69141C7.16406 0.980469 7.84766 0.515625 8.55859 0.652344ZM0.875 5H2.625C3.08984 5 3.5 5.41016 3.5 5.875V12C3.5 12.4922 3.08984 12.875 2.625 12.875H0.875C0.382812 12.875 0 12.4922 0 12V5.875C0 5.41016 0.382812 5 0.875 5Z" fill="#6F8DDB"/>
</svg>
