<svg width="4" height="14" viewBox="0 0 4 14" fill="none" xmlns="http://www.w3.org/2000/svg">
<path d="M2 10.5C2.53125 10.5 3 10.8125 3.28125 11.25C3.5625 11.7188 3.5625 12.3125 3.28125 12.75C3 13.2188 2.53125 13.5 2 13.5C1.4375 13.5 0.96875 13.2188 0.6875 12.75C0.40625 12.3125 0.40625 11.7188 0.6875 11.25C0.96875 10.8125 1.4375 10.5 2 10.5ZM2 5.5C2.53125 5.5 3 5.8125 3.28125 6.25C3.5625 6.71875 3.5625 7.3125 3.28125 7.75C3 8.21875 2.53125 8.5 2 8.5C1.4375 8.5 0.96875 8.21875 0.6875 7.75C0.40625 7.3125 0.40625 6.71875 0.6875 6.25C0.96875 5.8125 1.4375 5.5 2 5.5ZM3.5 2C3.5 2.5625 3.1875 3.03125 2.75 3.3125C2.28125 3.59375 1.6875 3.59375 1.25 3.3125C0.78125 3.03125 0.5 2.5625 0.5 2C0.5 1.46875 0.78125 1 1.25 0.71875C1.6875 0.4375 2.28125 0.4375 2.75 0.71875C3.1875 1 3.5 1.46875 3.5 2Z" fill="#5A6068"/>
</svg>
