<svg width="30" height="30" viewBox="0 0 30 30" fill="none" xmlns="http://www.w3.org/2000/svg">
<rect width="30" height="30" rx="15" fill="#F4F6F5"/>
<path d="M19.875 11.375H12.375C12.375 12.2188 11.6953 12.875 10.875 12.875V15.875C11.6953 15.875 12.375 16.5547 12.375 17.375H19.875C19.875 16.5547 20.5312 15.875 21.375 15.875V12.875C20.5312 12.875 19.875 12.2188 19.875 11.375ZM11.25 10.25H21C21.8203 10.25 22.5 10.9297 22.5 11.75V17C22.5 17.8438 21.8203 18.5 21 18.5H11.25C10.4062 18.5 9.75 17.8438 9.75 17V11.75C9.75 10.9297 10.4062 10.25 11.25 10.25ZM18 14.375C18 15.0547 17.625 15.6641 17.0625 16.0156C16.4766 16.3438 15.75 16.3438 15.1875 16.0156C14.6016 15.6641 14.25 15.0547 14.25 14.375C14.25 13.7188 14.6016 13.1094 15.1875 12.7578C15.75 12.4297 16.4766 12.4297 17.0625 12.7578C17.625 13.1094 18 13.7188 18 14.375ZM8.625 12.3125V17.9375C8.625 18.875 9.375 19.625 10.3125 19.625H19.6875C19.9922 19.625 20.25 19.8828 20.25 20.1875C20.25 20.5156 19.9922 20.75 19.6875 20.75H10.3125C8.74219 20.75 7.5 19.5078 7.5 17.9375V12.3125C7.5 12.0078 7.73438 11.75 8.0625 11.75C8.36719 11.75 8.625 12.0078 8.625 12.3125Z" fill="#14191F"/>
</svg>
