<svg width="64" height="61" viewBox="0 0 64 61" fill="none" xmlns="http://www.w3.org/2000/svg">
<path d="M32 4.25C22.5078 4.25 13.9531 9.28906 9.26562 17.375C4.46094 25.5781 4.46094 35.5391 9.26562 43.625C13.9531 51.8281 22.5078 56.75 32 56.75C41.375 56.75 49.9297 51.8281 54.6172 43.625C59.4219 35.5391 59.4219 25.5781 54.6172 17.375C49.9297 9.28906 41.375 4.25 32 4.25ZM32 60.5C21.2188 60.5 11.375 54.875 5.98438 45.5C0.59375 36.2422 0.59375 24.875 5.98438 15.5C11.375 6.24219 21.2188 0.5 32 0.5C42.6641 0.5 52.5078 6.24219 57.8984 15.5C63.2891 24.875 63.2891 36.2422 57.8984 45.5C52.5078 54.875 42.6641 60.5 32 60.5ZM44.5391 24.4062L29.5391 39.4062C28.8359 40.1094 27.5469 40.1094 26.8438 39.4062L19.3438 31.9062C18.6406 31.2031 18.6406 29.9141 19.3438 29.2109C20.0469 28.5078 21.3359 28.5078 22.0391 29.2109L28.25 35.4219L41.8438 21.7109C42.5469 21.0078 43.8359 21.0078 44.5391 21.7109C45.2422 22.4141 45.2422 23.7031 44.5391 24.4062Z" fill="#00C6A8"/>
</svg>
