<svg width="18" height="18" viewBox="0 0 18 18" fill="none" xmlns="http://www.w3.org/2000/svg">
<path d="M2.125 12.2812C2.21875 11.9688 2.375 11.6562 2.5625 11.4062V11.375H2.59375C2.65625 11.2812 2.75 11.1875 2.8125 11.125L12.3125 1.625C13.0938 0.84375 14.375 0.84375 15.1562 1.625L16.375 2.84375C16.4688 2.9375 16.5625 3.0625 16.625 3.15625C17.1562 3.9375 17.0625 5 16.375 5.6875L6.875 15.1875C6.84375 15.2188 6.78125 15.25 6.75 15.3125C6.71875 15.3438 6.65625 15.375 6.625 15.4062V15.4375H6.59375C6.34375 15.625 6.03125 15.7812 5.71875 15.875L3.28125 16.5938L1.9375 17C1.6875 17.0625 1.40625 17 1.21875 16.7812C1 16.5938 0.9375 16.3125 1.03125 16.0625L1.40625 14.7188L2.125 12.2812ZM12.9688 6.96875L11.0312 5.03125L5.21875 10.8438L5.59375 12.4062L7.15625 12.7812L12.9688 6.96875ZM4.03125 12.2188L3.65625 12.4688C3.625 12.5312 3.59375 12.625 3.5625 12.7188L3.34375 13.4375L2.84375 15.1562L4.5625 14.6562L5.28125 14.4375C5.375 14.4062 5.46875 14.375 5.53125 14.3438L5.78125 14L4.8125 13.75C4.53125 13.6875 4.3125 13.4688 4.25 13.1875L4.03125 12.2188ZM10.8438 7.84375L7.84375 10.8438C7.65625 11.0312 7.3125 11.0312 7.125 10.8438C6.9375 10.6562 6.9375 10.3438 7.125 10.1562L10.125 7.15625C10.3125 6.9375 10.6562 6.9375 10.8438 7.15625C11.0312 7.34375 11.0312 7.65625 10.8438 7.84375Z" fill="#14191F"/>
</svg>
