<svg width="31" height="30" viewBox="0 0 31 30" fill="none" xmlns="http://www.w3.org/2000/svg">
<path d="M20.0723 11.2812L16.3223 15.0312L20.041 18.75C20.3535 19.0312 20.3535 19.5 20.041 19.7812C19.7598 20.0938 19.291 20.0938 19.0098 19.7812L15.2598 16.0625L11.541 19.7812C11.2598 20.0938 10.791 20.0938 10.5098 19.7812C10.1973 19.5 10.1973 19.0312 10.5098 18.7188L14.2285 15L10.5098 11.2812C10.1973 11 10.1973 10.5312 10.5098 10.2188C10.791 9.9375 11.2598 9.9375 11.5723 10.2188L15.291 13.9688L19.0098 10.25C19.291 9.9375 19.7598 9.9375 20.0723 10.25C20.3535 10.5312 20.3535 11 20.0723 11.2812Z" fill="#C01100"/>
</svg>
