<svg width="12" height="15" viewBox="0 0 12 15" fill="none" xmlns="http://www.w3.org/2000/svg">
<path d="M0.75 2.0625C0.75 1.35156 1.32422 0.75 2.0625 0.75V2.0625V12.8359L5.61719 10.293C5.83594 10.1289 6.13672 10.1289 6.38281 10.293L9.9375 12.8359V2.0625H2.0625V0.75H9.9375C10.6484 0.75 11.25 1.35156 11.25 2.0625V14.0938C11.25 14.3398 11.1133 14.5859 10.8945 14.6953C10.6758 14.8047 10.4023 14.7773 10.2109 14.6406L6 11.6328L1.76172 14.6406C1.57031 14.7773 1.32422 14.8047 1.10547 14.6953C0.886719 14.5859 0.75 14.3398 0.75 14.0938V2.0625Z" fill="#5A6068"/>
</svg>
