<svg width="16" height="15" viewBox="0 0 16 15" fill="none" xmlns="http://www.w3.org/2000/svg">
<path d="M11.0625 7.75L13.9609 5.125L11.0625 2.52734V2.9375V3.8125C11.0625 4.05859 10.8438 4.25 10.625 4.25H9.75H9.3125H8C6.30469 4.25 4.9375 5.64453 4.9375 7.3125C4.9375 7.64062 4.96484 7.94141 5.07422 8.1875C5.45703 6.92969 6.63281 6 8.02734 6H9.3125H9.75H10.625C10.8438 6 11.0625 6.21875 11.0625 6.4375V7.3125V7.75ZM9.3125 7.3125H8.4375H8.02734C7.04297 7.3125 6.25 8.13281 6.25 9.11719C6.25 9.36328 6.27734 9.55469 6.35938 9.71875C6.41406 9.80078 6.44141 9.88281 6.49609 9.96484C6.52344 9.99219 6.55078 10.0195 6.55078 10.0469C6.57812 10.0742 6.60547 10.0742 6.63281 10.1016C6.6875 10.1562 6.71484 10.1836 6.76953 10.2109C6.76953 10.2383 6.79688 10.2383 6.79688 10.2383C6.96094 10.375 7.125 10.5664 7.125 10.7852C7.125 11.0312 6.90625 11.25 6.63281 11.25H6.55078C6.49609 11.25 6.41406 11.25 6.35938 11.2227C6.30469 11.1953 6.22266 11.168 6.14062 11.1133C6.05859 11.0586 5.94922 11.0039 5.8125 10.9492C5.67578 10.8398 5.51172 10.7578 5.34766 10.6211C4.55469 10.0469 3.625 8.98047 3.625 7.3125C3.625 4.90625 5.56641 2.9375 8 2.9375H8.4375H9.3125H9.75V1.70703C9.75 1.1875 10.1602 0.75 10.6797 0.75C10.9258 0.75 11.1445 0.859375 11.3086 0.996094L15.1094 4.41406C15.3008 4.60547 15.4375 4.85156 15.4375 5.125C15.4375 5.42578 15.3008 5.67188 15.1094 5.86328L11.3086 9.28125C11.1445 9.44531 10.9258 9.5 10.707 9.5H10.625C10.1328 9.5 9.75 9.11719 9.75 8.625V7.3125H9.3125ZM2.09375 1.625H3.84375C4.19922 1.625 4.5 1.92578 4.5 2.28125C4.5 2.66406 4.19922 2.9375 3.84375 2.9375H2.09375C1.71094 2.9375 1.4375 3.23828 1.4375 3.59375V12.7812C1.4375 13.1641 1.71094 13.4375 2.09375 13.4375H11.2812C11.6367 13.4375 11.9375 13.1641 11.9375 12.7812V11.0312C11.9375 10.6758 12.2109 10.375 12.5938 10.375C12.9492 10.375 13.25 10.6758 13.25 11.0312V12.7812C13.25 13.875 12.3477 14.75 11.2812 14.75H2.09375C1 14.75 0.125 13.875 0.125 12.7812V3.59375C0.125 2.52734 1 1.625 2.09375 1.625Z" fill="#5A6068"/>
</svg>
