<svg width="30" height="30" viewBox="0 0 30 30" fill="none" xmlns="http://www.w3.org/2000/svg">
<rect width="30" height="30" rx="15" fill="#F4F6F5"/>
<path d="M13.125 12.5V14H18.75C19.5703 14 20.25 14.6797 20.25 15.5V20C20.25 20.8438 19.5703 21.5 18.75 21.5H11.25C10.4062 21.5 9.75 20.8438 9.75 20V15.5C9.75 14.6797 10.4062 14 11.25 14H12V12.5C12 10.8594 13.3359 9.5 15 9.5C16.3359 9.5 17.4609 10.3906 17.8359 11.5859C17.9297 11.8906 17.7656 12.1953 17.4844 12.2891C17.1797 12.3828 16.875 12.2188 16.7812 11.9375C16.5234 11.1875 15.8203 10.625 15 10.625C13.9453 10.625 13.125 11.4688 13.125 12.5ZM10.875 15.5V20C10.875 20.2109 11.0391 20.375 11.25 20.375H18.75C18.9375 20.375 19.125 20.2109 19.125 20V15.5C19.125 15.3125 18.9375 15.125 18.75 15.125H11.25C11.0391 15.125 10.875 15.3125 10.875 15.5Z" fill="#14191F"/>
</svg>
