<svg width="24" height="24" viewBox="0 0 24 24" fill="none" xmlns="http://www.w3.org/2000/svg">
<path d="M4.25602 16.5938C3.13935 14.7098 2.74875 12.483 3.15755 10.3315C3.56636 8.17989 4.74645 6.25153 6.47628 4.90838C8.20611 3.56523 10.3667 2.89967 12.5525 3.03666C14.7383 3.17364 16.7989 4.10374 18.3475 5.65235C19.8961 7.20095 20.8262 9.26157 20.9632 11.4473C21.1002 13.6331 20.4346 15.7937 19.0915 17.5236C17.7483 19.2534 15.8199 20.4335 13.6684 20.8423C11.5168 21.2511 9.29001 20.8605 7.40602 19.7438V19.7438L4.29352 20.6251C4.16599 20.6624 4.03079 20.6647 3.90207 20.6317C3.77335 20.5988 3.65586 20.5319 3.56191 20.4379C3.46796 20.344 3.40101 20.2265 3.36809 20.0978C3.33516 19.969 3.33747 19.8338 3.37477 19.7063L4.25602 16.5938Z" stroke="#504B4B" stroke-width="1.2" stroke-linecap="round" stroke-linejoin="round"/>
</svg>
