<svg width="24" height="21" viewBox="0 0 24 21" fill="none" xmlns="http://www.w3.org/2000/svg">
<path d="M0.413574 15.3739C0.413574 17.3891 1.47768 18.4438 3.51172 18.4438H13.3335C12.9851 17.8788 12.7402 17.2384 12.6272 16.5698H3.5023C2.7207 16.5698 2.28753 16.1649 2.28753 15.3362V6.67272C2.28753 5.84404 2.7207 5.43911 3.5023 5.43911H16.4881C17.2697 5.43911 17.7029 5.84404 17.7029 6.67272V9.19644C18.0325 9.13994 18.3433 9.11169 18.654 9.11169C18.9648 9.11169 19.2755 9.13994 19.5863 9.18702V3.91358C19.5863 1.89838 18.5222 0.843689 16.4787 0.843689H3.51172C1.47768 0.843689 0.413574 1.88896 0.413574 3.91358V15.3739ZM5.11258 8.81976H14.8967C15.2357 8.81976 15.49 8.55609 15.49 8.20767C15.49 7.87808 15.2357 7.62382 14.8967 7.62382H5.11258C4.76416 7.62382 4.5099 7.87808 4.5099 8.20767C4.5099 8.55609 4.76416 8.81976 5.11258 8.81976ZM5.11258 11.5977H13.7102C14.0398 11.1457 14.4164 10.7502 14.859 10.4018H5.11258C4.76416 10.4018 4.5099 10.6749 4.5099 11.0139C4.5099 11.3435 4.76416 11.5977 5.11258 11.5977ZM18.654 20.1577C21.2907 20.1577 23.5131 17.9541 23.5131 15.2986C23.5131 12.643 21.319 10.4489 18.654 10.4489C15.9985 10.4489 13.8043 12.643 13.8043 15.2986C13.8043 17.9635 15.9985 20.1577 18.654 20.1577ZM15.5747 15.2986C15.5747 14.9125 15.8384 14.6582 16.2245 14.6582H18.0043V12.8784C18.0043 12.4923 18.2679 12.2287 18.654 12.2287C19.0495 12.2287 19.3038 12.4923 19.3038 12.8784V14.6582H21.0836C21.4697 14.6582 21.7333 14.9125 21.7333 15.2986C21.7333 15.6941 21.4697 15.9483 21.0836 15.9483H19.3038V17.7375C19.3038 18.1236 19.0495 18.3779 18.654 18.3779C18.2679 18.3779 18.0043 18.1236 18.0043 17.7375V15.9483H16.2245C15.8384 15.9483 15.5841 15.6941 15.5747 15.2986ZM5.11258 14.3757H11.29C11.629 14.3757 11.8833 14.1215 11.8833 13.7919C11.8833 13.4529 11.629 13.1892 11.29 13.1892H5.11258C4.76416 13.1892 4.5099 13.4529 4.5099 13.7919C4.5099 14.1215 4.76416 14.3757 5.11258 14.3757Z" fill="white"/>
</svg>
