<svg width="24" height="24" viewBox="0 0 24 24" fill="none" xmlns="http://www.w3.org/2000/svg">
<path d="M12.0049 21.1455C13.2549 21.1455 14.43 20.9046 15.5303 20.4229C16.637 19.9476 17.6104 19.29 18.4502 18.4502C19.2965 17.6104 19.9574 16.6403 20.4326 15.54C20.9079 14.4333 21.1455 13.2516 21.1455 11.9951C21.1455 10.7451 20.9079 9.56999 20.4326 8.46973C19.9574 7.36296 19.2965 6.38965 18.4502 5.5498C17.6104 4.70345 16.637 4.04264 15.5303 3.56738C14.43 3.09212 13.2516 2.85449 11.9951 2.85449C10.7451 2.85449 9.56673 3.09212 8.45996 3.56738C7.3597 4.04264 6.38639 4.70345 5.54004 5.5498C4.7002 6.38965 4.04264 7.36296 3.56738 8.46973C3.09212 9.56999 2.85449 10.7451 2.85449 11.9951C2.85449 13.2516 3.09212 14.4333 3.56738 15.54C4.04915 16.6403 4.70996 17.6104 5.5498 18.4502C6.38965 19.29 7.3597 19.9476 8.45996 20.4229C9.56673 20.9046 10.7484 21.1455 12.0049 21.1455ZM12.0049 20.1787C10.8721 20.1787 9.81087 19.9671 8.82129 19.5439C7.83171 19.1208 6.96256 18.5348 6.21387 17.7861C5.46517 17.0374 4.87923 16.1683 4.45605 15.1787C4.03939 14.1891 3.83105 13.1279 3.83105 11.9951C3.83105 10.8688 4.03939 9.81087 4.45605 8.82129C4.87923 7.83171 5.46517 6.96256 6.21387 6.21387C6.96256 5.46517 7.83171 4.87923 8.82129 4.45605C9.81087 4.03288 10.8688 3.82129 11.9951 3.82129C13.1279 3.82129 14.1891 4.03288 15.1787 4.45605C16.1683 4.87923 17.0374 5.46517 17.7861 6.21387C18.5348 6.96256 19.1208 7.83171 19.5439 8.82129C19.9671 9.81087 20.1787 10.8688 20.1787 11.9951C20.1852 13.1279 19.9736 14.1891 19.5439 15.1787C19.1208 16.1683 18.5348 17.0374 17.7861 17.7861C17.0439 18.5348 16.1781 19.1208 15.1885 19.5439C14.1989 19.9671 13.1377 20.1787 12.0049 20.1787ZM11.8291 13.8604C11.9723 13.8604 12.0863 13.818 12.1709 13.7334C12.2555 13.6488 12.2979 13.5446 12.2979 13.4209C12.2979 13.3818 12.2979 13.3428 12.2979 13.3037C12.2979 13.2646 12.2979 13.2256 12.2979 13.1865C12.2979 12.9066 12.3727 12.6657 12.5225 12.4639C12.6722 12.262 12.9229 12.0439 13.2744 11.8096C13.7432 11.4906 14.0947 11.1748 14.3291 10.8623C14.5635 10.5498 14.6807 10.1559 14.6807 9.68066C14.6807 9.25098 14.5635 8.87988 14.3291 8.56738C14.1012 8.25488 13.7887 8.01074 13.3916 7.83496C12.9945 7.65918 12.5485 7.57129 12.0537 7.57129C11.3115 7.57129 10.7126 7.74707 10.2568 8.09863C9.80111 8.44369 9.53092 8.84408 9.44629 9.2998C9.42676 9.36491 9.41374 9.42676 9.40723 9.48535C9.40072 9.54395 9.39746 9.60905 9.39746 9.68066C9.39746 9.81738 9.43978 9.9248 9.52441 10.0029C9.60905 10.0745 9.70671 10.1104 9.81738 10.1104C9.92806 10.1104 10.0192 10.0843 10.0908 10.0322C10.1624 9.98014 10.2178 9.90853 10.2568 9.81738L10.335 9.66113C10.4066 9.32259 10.5921 9.02637 10.8916 8.77246C11.1976 8.51855 11.5719 8.3916 12.0146 8.3916C12.5225 8.3916 12.9261 8.51855 13.2256 8.77246C13.5316 9.01986 13.6846 9.34212 13.6846 9.73926C13.6846 10.0518 13.5902 10.3219 13.4014 10.5498C13.2126 10.7712 12.9033 11.0348 12.4736 11.3408C12.109 11.5947 11.8324 11.8551 11.6436 12.1221C11.4548 12.389 11.3604 12.7243 11.3604 13.1279C11.3604 13.1735 11.3604 13.2191 11.3604 13.2646C11.3604 13.3037 11.3604 13.346 11.3604 13.3916C11.3604 13.7041 11.5166 13.8604 11.8291 13.8604ZM11.8193 16.4189C12.0277 16.4189 12.2067 16.3441 12.3564 16.1943C12.5127 16.0446 12.5908 15.8688 12.5908 15.667C12.5908 15.4521 12.5127 15.2731 12.3564 15.1299C12.2067 14.9801 12.0277 14.9053 11.8193 14.9053C11.6045 14.9053 11.4222 14.9801 11.2725 15.1299C11.1227 15.2796 11.0479 15.4587 11.0479 15.667C11.0479 15.8688 11.1227 16.0446 11.2725 16.1943C11.4222 16.3441 11.6045 16.4189 11.8193 16.4189Z" fill="#333333"/>
</svg>
