<svg width="20" height="20" viewBox="0 0 20 20" fill="none" xmlns="http://www.w3.org/2000/svg">
<path d="M17.7588 13.3838L16.3571 11.9823C15.8884 11.5134 15.625 10.8775 15.625 10.2145V7.06758C15.625 4.3677 13.7863 1.98273 11.2354 1.3948C11.2409 1.34676 11.25 1.29961 11.25 1.25C11.25 0.560898 10.6891 0 10 0C9.3109 0 8.75 0.560898 8.75 1.25C8.75 1.29883 8.75887 1.34508 8.76434 1.39238C6.25336 1.95617 4.375 4.19371 4.375 6.875V10.2145C4.375 10.8775 4.11164 11.5134 3.64289 11.9823L2.24121 13.3838C2.00684 13.6183 1.875 13.9362 1.875 14.2677V15.625H18.125V14.2677C18.125 13.9362 17.9932 13.6183 17.7588 13.3838Z" fill="#333333"/>
<path d="M7.5 17.5C7.5 18.8806 8.61937 20 10 20C11.3806 20 12.5 18.8806 12.5 17.5V16.875H7.5V17.5Z" fill="#333333"/>
</svg>
