<svg width="24" height="24" viewBox="0 0 24 24" fill="none" xmlns="http://www.w3.org/2000/svg">
<path d="M23.506 17.9902L15.0235 2.40903C14.3766 1.34023 13.2516 0.693359 12 0.693359C10.7484 0.693359 9.62343 1.34023 8.97651 2.40903L0.494011 17.9902C-0.15277 19.1012 -0.16688 20.4231 0.46598 21.534C1.09875 22.6449 2.23776 23.3059 3.5175 23.3059H20.4825C21.7622 23.3059 22.9013 22.6449 23.534 21.534C24.1669 20.4231 24.1528 19.1012 23.506 17.9902Z" fill="#FF0000"/>
<path d="M23.534 21.534C22.9012 22.6449 21.7622 23.3059 20.4825 23.3059H12V0.693359C13.2516 0.693359 14.3766 1.34028 15.0235 2.40903L23.506 17.9902C24.1528 19.1012 24.1669 20.4231 23.534 21.534Z" fill="#FF0000"/>
<path d="M22.2966 18.7074L13.814 3.12612C13.4345 2.4793 12.7454 2.09961 12 2.09961C11.2547 2.09961 10.5656 2.47934 10.186 3.12612L1.70342 18.7074C1.30972 19.3684 1.30972 20.1699 1.68945 20.8309C2.06909 21.5058 2.75811 21.8996 3.51758 21.8996H20.4826C21.242 21.8996 21.9311 21.5058 22.3107 20.8309C22.6903 20.1699 22.6903 19.3684 22.2966 18.7074Z" fill="#FECFCC"/>
<path d="M22.3106 20.8309C21.931 21.5058 21.242 21.8996 20.4825 21.8996H12V2.09961C12.7454 2.09961 13.4344 2.47934 13.814 3.12612L22.2966 18.7074C22.6903 19.3684 22.6903 20.1699 22.3106 20.8309Z" fill="#FECFCC"/>
<path d="M12 20.4932C11.2248 20.4932 10.5938 19.8621 10.5938 19.0869C10.5938 18.3117 11.2248 17.6807 12 17.6807C12.7752 17.6807 13.4062 18.3117 13.4062 19.0869C13.4062 19.8621 12.7752 20.4932 12 20.4932Z" fill="#FF0000"/>
<path d="M13.4062 14.8682C13.4062 15.6434 12.7752 16.2744 12 16.2744C11.2248 16.2744 10.5938 15.6434 10.5938 14.8682V7.83691C10.5938 7.0617 11.2248 6.43066 12 6.43066C12.7752 6.43066 13.4062 7.0617 13.4062 7.83691V14.8682Z" fill="#FF0000"/>
<path d="M13.4062 19.0869C13.4062 18.3117 12.7752 17.6807 12 17.6807V20.4932C12.7752 20.4932 13.4062 19.8621 13.4062 19.0869Z" fill="#FF0000"/>
<path d="M13.4062 14.8682V7.83691C13.4062 7.0617 12.7752 6.43066 12 6.43066V16.2744C12.7752 16.2744 13.4062 15.6434 13.4062 14.8682Z" fill="#FF0000"/>
</svg>
