<svg width="18" height="17" viewBox="0 0 18 17" fill="none" xmlns="http://www.w3.org/2000/svg">
<path d="M0.64329 9.48477C0.457837 9.48477 0.304259 9.42392 0.182555 9.30221C0.0608518 9.18051 0 9.02403 0 8.83278V5.98086C0 5.23905 0.162271 4.60445 0.486814 4.07707C0.811357 3.54389 1.2634 3.13532 1.84294 2.85134C2.42828 2.56737 3.11793 2.42538 3.9119 2.42538H10.0927V0.478121C10.0927 0.321645 10.1362 0.202839 10.2231 0.121704C10.31 0.0405679 10.4317 0 10.5882 0C10.6578 0 10.7244 0.0115908 10.7882 0.0347724C10.8577 0.0579541 10.9243 0.0927265 10.9881 0.13909L14.0741 2.66879C14.2074 2.7789 14.2712 2.90929 14.2654 3.05998C14.2654 3.20486 14.2016 3.32946 14.0741 3.43378L10.9881 5.96347C10.9243 6.00984 10.8577 6.04751 10.7882 6.07648C10.7244 6.09967 10.6578 6.11126 10.5882 6.11126C10.4317 6.11126 10.31 6.07069 10.2231 5.98955C10.1362 5.90262 10.0927 5.78092 10.0927 5.62444V3.68588H3.79889C3.0281 3.68588 2.41668 3.90031 1.96464 4.32917C1.5184 4.75223 1.29527 5.33177 1.29527 6.06779V8.83278C1.29527 9.02403 1.23442 9.18051 1.11272 9.30221C0.991015 9.42392 0.834539 9.48477 0.64329 9.48477ZM16.5951 7.50654C16.7864 7.50654 16.94 7.56739 17.0559 7.68909C17.1776 7.8108 17.2384 7.96438 17.2384 8.14983V11.0018C17.2384 11.7436 17.0762 12.3811 16.7516 12.9142C16.4329 13.4474 15.9808 13.856 15.3955 14.14C14.8102 14.4239 14.1205 14.5659 13.3265 14.5659H7.15443V16.5219C7.15443 16.6784 7.11097 16.7972 7.02403 16.8783C6.9371 16.9594 6.8154 17 6.65892 17C6.58938 17 6.51983 16.9884 6.45029 16.9652C6.38074 16.942 6.31699 16.9073 6.25904 16.8609L3.16429 14.3312C3.031 14.2211 2.96435 14.0936 2.96435 13.9487C2.97015 13.8038 3.03679 13.6763 3.16429 13.5662L6.25904 11.0365C6.31699 10.9844 6.38074 10.9467 6.45029 10.9235C6.51983 10.9003 6.58938 10.8887 6.65892 10.8887C6.8154 10.8887 6.9371 10.9322 7.02403 11.0191C7.11097 11.1003 7.15443 11.2191 7.15443 11.3756V13.2967H13.4482C14.2132 13.2967 14.8189 13.0852 15.2651 12.6621C15.7171 12.2333 15.9432 11.6537 15.9432 10.9235V8.14983C15.9432 7.96438 16.004 7.8108 16.1257 7.68909C16.2532 7.56739 16.4097 7.50654 16.5951 7.50654Z" fill="#666666"/>
</svg>
