<svg width="22" height="22" viewBox="0 0 22 22" fill="none" xmlns="http://www.w3.org/2000/svg">
<circle cx="11" cy="11" r="10" fill="#5046E5" stroke="#5046E5"/>
<path fill-rule="evenodd" clip-rule="evenodd" d="M10.1287 14.1402L16.319 7.94988L15.7476 7.37848L9.55729 13.5688L6.70029 10.7118L6.1289 11.2832L9.66443 14.8187L10.2358 14.2473L10.1287 14.1402Z" fill="white"/>
<path d="M16.319 7.94988L16.6726 8.30343L17.0261 7.94988L16.6726 7.59633L16.319 7.94988ZM10.1287 14.1402L9.77514 13.7867L9.42159 14.1402L9.77514 14.4938L10.1287 14.1402ZM15.7476 7.37848L16.1012 7.02493L15.7476 6.67137L15.3941 7.02493L15.7476 7.37848ZM9.55729 13.5688L9.20374 13.9224L9.55729 14.2759L9.91085 13.9224L9.55729 13.5688ZM6.70029 10.7118L7.05385 10.3583L6.70029 10.0047L6.34674 10.3583L6.70029 10.7118ZM6.1289 11.2832L5.77534 10.9297L5.42179 11.2832L5.77534 11.6368L6.1289 11.2832ZM9.66443 14.8187L9.31088 15.1723L9.66443 15.5259L10.018 15.1723L9.66443 14.8187ZM10.2358 14.2473L10.5894 14.6009L10.9429 14.2473L10.5894 13.8938L10.2358 14.2473ZM15.9655 7.59633L9.77514 13.7867L10.4822 14.4938L16.6726 8.30343L15.9655 7.59633ZM15.3941 7.73203L15.9655 8.30343L16.6726 7.59633L16.1012 7.02493L15.3941 7.73203ZM9.91085 13.9224L16.1012 7.73203L15.3941 7.02493L9.20374 13.2153L9.91085 13.9224ZM6.34674 11.0654L9.20374 13.9224L9.91085 13.2153L7.05385 10.3583L6.34674 11.0654ZM6.48245 11.6368L7.05385 11.0654L6.34674 10.3583L5.77534 10.9297L6.48245 11.6368ZM10.018 14.4652L6.48245 10.9297L5.77534 11.6368L9.31088 15.1723L10.018 14.4652ZM9.88228 13.8938L9.31088 14.4652L10.018 15.1723L10.5894 14.6009L9.88228 13.8938ZM9.77514 14.4938L9.88228 14.6009L10.5894 13.8938L10.4822 13.7867L9.77514 14.4938Z" fill="white"/>
</svg>
